<svg id="Layer_1" data-name="Layer 1" xmlns="http://www.w3.org/2000/svg" viewBox="0 0 100 100"><defs><style>.cls-1{fill:#1465d2;}.cls-2{fill:#fff;}</style></defs><title>in</title><circle class="cls-1" cx="50" cy="50" r="50"/><path class="cls-2" d="M47.22,53.6s6-.88,6-8.18S48.3,35,42.17,35H22V76.56l20.39,0s12.36-.43,12.36-12.86c0,0,.31-10.12-7.49-10.12ZM30.89,42.42H42.17S45,42.61,45,46.84s-1.7,4.48-3.53,4.48H30.89V42.42ZM41.6,69.1H30.89V57.24H42.17s4.37.32,4.37,6c0,4.77-3.33,5.86-4.93,5.9ZM71.09,45.36c-14.9,0-14.9,15.57-14.9,15.57s-1,15.67,14.9,15.67c0,0,13.35,0,13.35-10.41H77.53s.22,4-6.22,4c0,0-7.1.62-7.1-7H84.45s2.32-17.84-13.37-17.84ZM77,57.26H64.37s.69-5.93,6.68-5.93,6,5.93,6,5.93ZM78.5,37.95H62.14v4.47H78.5V37.95Z" transform="translate(-3.27 -5.79)"/></svg>