<?xml version="1.0" encoding="utf-8"?>
<!-- Generator: Adobe Illustrator 21.0.0, SVG Export Plug-In . SVG Version: 6.00 Build 0)  -->
<svg version="1.1" id="Layer_1" xmlns="http://www.w3.org/2000/svg" xmlns:xlink="http://www.w3.org/1999/xlink" x="0px" y="0px"
	 viewBox="0 0 37 38" style="enable-background:new 0 0 37 38;" xml:space="preserve">
<style type="text/css">
	.st0{fill:#717171;}
	.st1{fill:#ECE9E4;}
</style>
<circle class="st0" cx="18.8" cy="19.2" r="17.5"/>
<g>
	<path class="st1" d="M8.1,14.2h21.4c1,0,1.8,0.8,1.8,1.8v0c0,1-0.8,1.8-1.8,1.8H8.1c-1,0-1.8-0.8-1.8-1.8v0
		C6.2,15.1,7.1,14.2,8.1,14.2z"/>
	<path class="st1" d="M8.1,20.6h21.4c1,0,1.8,0.8,1.8,1.8v0c0,1-0.8,1.8-1.8,1.8H8.1c-1,0-1.8-0.8-1.8-1.8v0
		C6.2,21.4,7.1,20.6,8.1,20.6z"/>
</g>
</svg>
