<svg id="Layer_1" data-name="Layer 1" xmlns="http://www.w3.org/2000/svg" viewBox="0 0 100 100"><defs><style>.cls-1{fill:#1d74a6;}.cls-2{fill:#fff;}</style></defs><title>in</title><circle class="cls-1" cx="50" cy="50" r="50"/><path class="cls-2" d="M33.27,43.3c-3.52,0-5.88-2.24-5.88-5.28s2.35-5.33,5.94-5.33S39.13,34.9,39.2,38,37,43.3,33.27,43.3ZM38,82.05H28.55V48H38v34Zm29.41,0V62.35c0-4.36-2.7-7.34-6.52-7.34A6.74,6.74,0,0,0,54.78,59a7.58,7.58,0,0,0-.35,2.64V82.05H45V48h8.4l.7,3.69c1.38-2.22,5.2-4.88,10.89-4.88,6.95,0,11.75,4,11.75,14V82.05Z" transform="translate(-2.08 -7.37)"/></svg>